<svg xmlns="http://www.w3.org/2000/svg" xmlns:svg="http://www.w3.org/2000/svg" xmlns:xlink="http://www.w3.org/1999/xlink" version="1.0" height="370pt" width="690pt" viewBox="305 97 698 376" ><defs><style type="text/css">
            @font-face {
                font-family: 'lt_regular';
                src: url('https://app.creately.com/diagram/assets/fonts/lato/lt-regular-webfont.woff2') format('woff2'),
                    url('https://app.creately.com/diagram/assets/fonts/lato/lt-regular-webfont.woff') format('woff');
                font-weight: normal;
                font-style: normal;
            }
            @font-face {
                font-family: 'noto_regular';
                src: url('https://app.creately.com/diagram/assets/fonts/noto/noto-regular.woff') format('woff'),
                     url('https://app.creately.com/diagram/assets/fonts/noto/noto-regular.woff2') format('woff2');
                font-weight: normal;
                font-style: normal;
            }
        p {
            margin: 0;
        }
        </style></defs><defs><style>
            span{ display: inline-block; }
        </style></defs><g id="LEpDACD5U47"><g transform="translate(310 110)"><ellipse cx="40" cy="7.5" rx="10" ry="7.5" fill="rgb(209,83,77)" stroke="#d1534d" stroke-width="2" stroke-linecap="round" stroke-linejoin="round" stroke-dasharray="0 0"/><path d="M 40,15 L 40,36 L 60,60 M 40,36 L 20,60 M 22,22.5 L 58,22.5" fill="none" stroke="#d1534d" stroke-width="2" stroke-linecap="round" stroke-linejoin="round" stroke-dasharray="0 0"/><path d="M 40,89 L 40,360" fill="none" stroke="#d1534d" stroke-width="2" stroke-linecap="round" stroke-linejoin="round" stroke-dasharray="3 3"/><rect x="0" y="0" width="80" height="360" fill="rgba(255,255,255,0.01)" stroke="rgba(255,255,255,0.01)" stroke-width="2" stroke-linecap="round" stroke-linejoin="round" stroke-dasharray="3 3"/></g><g transform="translate(337.5, 175) rotate(0, 12.5, 0)" width="25" height="19"><text text-decoration="none" x="0" fill="#ffffff" font-size="10pt" font-family="lt_regular"  y="15">user</text><text text-decoration="none" x="25" fill="#4b4b4b" font-size="10pt" font-family="noto_regular"  y="15"></text></g></g><g id="liZLK0zIeMj"><g transform="translate(500 100)"><rect x="0" y="0" width="100" height="29" fill="rgb(209,83,77)" stroke="#d1534d" stroke-width="2" stroke-linecap="round" stroke-linejoin="round" stroke-dasharray="0 0"/><path d="M 50,29 L 50,360" fill="rgb(209,83,77)" stroke="#d1534d" stroke-width="2" stroke-linecap="round" stroke-linejoin="round" stroke-dasharray="3 3"/><rect x="0" y="0" width="100" height="360" fill="rgba(255,255,255,0.01)" stroke="rgba(255,255,255,0.01)" stroke-width="2" stroke-linecap="round" stroke-linejoin="round" stroke-dasharray="3 3"/></g><g transform="translate(513.5, 105) rotate(0, 36.5, 0)" width="73" height="19"><text text-decoration="none" x="1.5" fill="#ffffff" font-size="10pt" font-family="lt_regular"  y="15">specification</text><text text-decoration="none" x="71.5" fill="#4b4b4b" font-size="10pt" font-family="noto_regular"  y="15"></text></g></g><g id="1C8iu9l2KaX"><g transform="translate(700 100)"><rect x="0" y="0" width="100" height="29" fill="rgb(209,83,77)" stroke="#d1534d" stroke-width="2" stroke-linecap="round" stroke-linejoin="round" stroke-dasharray="0 0"/><path d="M 50,29 L 50,360" fill="rgb(209,83,77)" stroke="#d1534d" stroke-width="2" stroke-linecap="round" stroke-linejoin="round" stroke-dasharray="3 3"/><rect x="0" y="0" width="100" height="360" fill="rgba(255,255,255,0.01)" stroke="rgba(255,255,255,0.01)" stroke-width="2" stroke-linecap="round" stroke-linejoin="round" stroke-dasharray="3 3"/></g><g transform="translate(729.5, 105) rotate(0, 20.5, 0)" width="41" height="19"><text text-decoration="none" x="0" fill="#ffffff" font-size="10pt" font-family="lt_regular"  y="15">system</text><text text-decoration="none" x="42" fill="#4b4b4b" font-size="10pt" font-family="noto_regular"  y="15"></text></g></g><g id="jNJ6xM5n4aQ"><g transform="translate(900 100)"><rect x="0" y="0" width="100" height="29" fill="rgb(209,83,77)" stroke="#d1534d" stroke-width="2" stroke-linecap="round" stroke-linejoin="round" stroke-dasharray="0 0"/><path d="M 50,29 L 50,360" fill="rgb(209,83,77)" stroke="#d1534d" stroke-width="2" stroke-linecap="round" stroke-linejoin="round" stroke-dasharray="3 3"/><rect x="0" y="0" width="100" height="360" fill="rgba(255,255,255,0.01)" stroke="rgba(255,255,255,0.01)" stroke-width="2" stroke-linecap="round" stroke-linejoin="round" stroke-dasharray="3 3"/></g><g transform="translate(929.5, 105) rotate(0, 20.5, 0)" width="41" height="19"><text text-decoration="none" x="0" fill="#ffffff" font-size="10pt" font-family="lt_regular"  y="15">system</text><text text-decoration="none" x="42" fill="#4b4b4b" font-size="10pt" font-family="noto_regular"  y="15"></text></g></g><g id="FOxA5zkLFa9"><g transform="translate(540 200)"><rect x="0" y="0" width="20" height="80" fill="rgb(241,191,49)" stroke="#f1bf31" stroke-width="2" stroke-linecap="round" stroke-linejoin="round" stroke-dasharray="0 0"/></g></g><g id="A3HbYa7UHa5"><g transform="translate(740 200)"><rect x="0" y="0" width="20" height="200" fill="rgb(241,191,49)" stroke="#f1bf31" stroke-width="2" stroke-linecap="round" stroke-linejoin="round" stroke-dasharray="0 0"/></g></g><g id="8CJBsFuSyfB"><g transform="translate(940 200)"><rect x="0" y="0" width="20" height="200" fill="rgb(241,191,49)" stroke="#f1bf31" stroke-width="2" stroke-linecap="round" stroke-linejoin="round" stroke-dasharray="0 0"/></g></g><g id="LTnMTvIoT5C"><g transform="translate(340 220)"><rect x="0" y="0" width="20" height="200" fill="rgb(241,191,49)" stroke="#f1bf31" stroke-width="2" stroke-linecap="round" stroke-linejoin="round" stroke-dasharray="0 0"/></g></g><g id="tmEJy5ZTazB"><mask id="e45e2" x="346" y="216" width="208" height="28" maskUnits="userSpaceOnUse"><rect x="346" y="216" width="208" height="28" fill="white" /><rect x="383.5" y="217.5" width="133" height="25" fill="black" /></mask><g mask="url(#e45e2)"><path d="M 360,230 L 540,230" fill="none" stroke="#354860" stroke-width="2" stroke-linecap="round" stroke-linejoin="round" stroke-dasharray="0 0"/><path d="M 540,230 L 531.304347826087,224.25 L 531.304347826087,235.75 Z" fill="rgb(53,72,96)" stroke="#354860" stroke-width="2" stroke-linecap="round" stroke-linejoin="round"/></g><g transform="translate(386.5, 220.5)" width="127" height="19"><text text-decoration="none" x="2.5" fill="#4b4b4b" font-size="10pt" font-family="lt_regular"  y="15">selects&#160;&#160;</text><text text-decoration="none" x="48.5" fill="#4b4b4b" font-size="10pt" font-family="lt_regular"  y="15">specification()</text><text text-decoration="none" x="124.5" fill="#4b4b4b" font-size="10pt" font-family="noto_regular"  y="15"></text></g></g><g id="X7V5Nqasd2q"><mask id="c12e6" x="546" y="196" width="208" height="28" maskUnits="userSpaceOnUse"><rect x="546" y="196" width="208" height="28" fill="white" />undefined</mask><g mask="url(#c12e6)"><path d="M 560,210 L 740,210" fill="none" stroke="#354860" stroke-width="2" stroke-linecap="round" stroke-linejoin="round" stroke-dasharray="0 0"/><path d="M 740,210 L 731.304347826087,204.25 L 731.304347826087,215.75 Z" fill="rgb(53,72,96)" stroke="#354860" stroke-width="2" stroke-linecap="round" stroke-linejoin="round"/></g>undefined</g><g id="VaHRZEVOWRu"><mask id="72209" x="746" y="196" width="208" height="28" maskUnits="userSpaceOnUse"><rect x="746" y="196" width="208" height="28" fill="white" /><rect x="787" y="197.5" width="126" height="25" fill="black" /></mask><g mask="url(#72209)"><path d="M 760,210 L 940,210" fill="none" stroke="#354860" stroke-width="2" stroke-linecap="round" stroke-linejoin="round" stroke-dasharray="0 0"/><path d="M 940,210 L 931.304347826087,204.25 L 931.304347826087,215.75 Z" fill="rgb(53,72,96)" stroke="#354860" stroke-width="2" stroke-linecap="round" stroke-linejoin="round"/></g><g transform="translate(790, 200.5)" width="120" height="19"><text text-decoration="none" x="2" fill="#4b4b4b" font-size="10pt" font-family="lt_regular"  y="15">search&#160;</text><text text-decoration="none" x="42" fill="#4b4b4b" font-size="10pt" font-family="lt_regular"  y="15">for&#160;</text><text text-decoration="none" x="62" fill="#4b4b4b" font-size="10pt" font-family="lt_regular"  y="15">products()</text><text text-decoration="none" x="118" fill="#4b4b4b" font-size="10pt" font-family="noto_regular"  y="15"></text></g></g><g id="70BZlKss5Nd"><mask id="84da3" x="746" y="276" width="208" height="28" maskUnits="userSpaceOnUse"><rect x="746" y="276" width="208" height="28" fill="white" />undefined</mask><g mask="url(#84da3)"><path d="M 940,290 L 760,290" fill="none" stroke="#3D5C83" stroke-width="2" stroke-linecap="round" stroke-linejoin="round" stroke-dasharray="3 3"/><path d="M 760,290 L 766.9565217391304,296.49717514124296 M 760,290 L 766.9565217391304,283.50282485875704 Z" fill="rgb(255,255,255)" stroke="#3D5C83" stroke-width="2" stroke-linecap="round" stroke-linejoin="round"/></g>undefined</g><g id="eOUl1ipoaqE"><mask id="e7b98" x="346" y="316" width="408" height="28" maskUnits="userSpaceOnUse"><rect x="346" y="316" width="408" height="28" fill="white" />undefined<rect x="411.5" y="317.5" width="97" height="25" fill="black" /></mask><g mask="url(#e7b98)"><path d="M 740,330 L 360,330" fill="none" stroke="#3D5C83" stroke-width="2" stroke-linecap="round" stroke-linejoin="round" stroke-dasharray="3 3"/><path d="M 360,330 L 366.95652173913044,336.49717514124296 M 360,330 L 366.95652173913044,323.50282485875704 Z" fill="rgb(255,255,255)" stroke="#3D5C83" stroke-width="2" stroke-linecap="round" stroke-linejoin="round"/></g>undefined<g transform="translate(414.5, 320.5)" width="91" height="19"><text text-decoration="none" x="1" fill="#4b4b4b" font-size="10pt" font-family="lt_regular"  y="15">snows&#160;</text><text text-decoration="none" x="40" fill="#4b4b4b" font-size="10pt" font-family="lt_regular"  y="15">products</text><text text-decoration="none" x="90" fill="#4b4b4b" font-size="10pt" font-family="noto_regular"  y="15"></text></g></g></svg>